<mxfile host="app.diagrams.net" modified="2024-07-11T02:33:00.210Z" agent="Mozilla/5.0 (Windows NT 10.0; Win64; x64) AppleWebKit/537.36 (KHTML, like Gecko) Chrome/126.0.0.0 Safari/537.36" version="24.6.4" etag="79MtmgxnAq5DS6J8L8Qd" type="github">
  <diagram name="PÃ¡gina-1" id="qETVStCz8gg6xND3oQ-6">
    <mxGraphModel>
      <root>
        <mxCell id="0" />
        <mxCell id="1" parent="0" />
      </root>
    </mxGraphModel>
  </diagram>
</mxfile>
